<svg width="48" height="48" viewBox="0 0 48 48" fill="none" xmlns="http://www.w3.org/2000/svg">
<path d="M39.9979 40.0264H19.9708V8H39.9979C42.2085 8 44 9.79154 44 12.0021V36.0242C44 38.2348 42.2085 40.0264 39.9979 40.0264Z" fill="#C4C4C4"/>
<path d="M28.7872 27.7116L32.0148 30.0564L35.2448 27.7092L32.0148 25.3645L28.7872 27.7116ZM26.7909 21.5672C26.0375 23.8884 26.9133 26.3485 28.7872 27.7092L30.0208 23.9143L26.7909 21.5672H30.7812L32.0148 17.7722H28.0245L26.7909 21.5672ZM37.2411 21.5672L36.0075 17.7722H32.0148L33.2484 21.5672H37.2411L34.0112 23.9143L35.2448 27.7092C37.2199 26.2755 37.9568 23.7707 37.2411 21.5672Z" fill="#65676E"/>
<path d="M8.00212 40.0264H19.992V8H8.00212C5.79154 8 4 9.79154 4 12.0021V36.0242C4 38.2348 5.79154 40.0264 8.00212 40.0264Z" fill="#65676E"/>
<path d="M9.15097 14.1515C9.78286 14.1515 10.2951 13.6392 10.2951 13.0074C10.2951 12.3755 9.78286 11.8632 9.15097 11.8632C8.51908 11.8632 8.00684 12.3755 8.00684 13.0074C8.00684 13.6392 8.51908 14.1515 9.15097 14.1515Z" fill="#C4C4C4"/>
<path d="M13.0966 20.0158H8.99559C8.44942 20.0158 8.00919 19.5732 8.00919 19.0294C8.00919 18.4832 8.45177 18.043 8.99559 18.043H13.0966C13.6428 18.043 14.083 18.4856 14.083 19.0294C14.083 19.5732 13.6404 20.0158 13.0966 20.0158Z" fill="#9B9D9F"/>
<path d="M13.0966 28.0318H8.99559C8.44942 28.0318 8.00919 27.5892 8.00919 27.0454C8.00919 26.4992 8.45177 26.059 8.99559 26.059H13.0966C13.6428 26.059 14.083 26.5015 14.083 27.0454C14.083 27.5892 13.6404 28.0318 13.0966 28.0318Z" fill="#9B9D9F"/>
<path d="M15.0906 24.0226H8.99559C8.44942 24.0226 8.00919 23.58 8.00919 23.0362C8.00919 22.49 8.45177 22.0498 8.99559 22.0498H15.0906C15.6368 22.0498 16.077 22.4924 16.077 23.0362C16.077 23.5824 15.6344 24.0226 15.0906 24.0226Z" fill="#9B9D9F"/>
<path d="M10.9919 36.029H8.99559C8.44942 36.029 8.00919 35.5864 8.00919 35.0426C8.00919 34.4964 8.45177 34.0562 8.99559 34.0562H10.9919C11.5381 34.0562 11.9783 34.4987 11.9783 35.0426C11.9783 35.5864 11.5358 36.029 10.9919 36.029Z" fill="#C4C4C4"/>
</svg>
